HIERARCHY
ROOT Hips
{
  OFFSET 38.0318 98.8547 2.23354
  CHANNELS 6 Xposition Yposition Zposition Zrotation Xrotation Yrotation
  JOINT spine
  {
    OFFSET 0 8.30104 0.477351
    CHANNELS 3 Zrotation Xrotation Yrotation
    JOINT spine1
    {
      OFFSET 0 10.4565 0
      CHANNELS 3 Zrotation Xrotation Yrotation
      JOINT spine2
      {
        OFFSET 0 10.0192 0
        CHANNELS 3 Zrotation Xrotation Yrotation
        JOINT Neck
        {
          OFFSET 0 25.7235 1.22641
          CHANNELS 3 Zrotation Xrotation Yrotation
          JOINT Head
          {
            OFFSET 0 7.77175 0
            CHANNELS 3 Zrotation Xrotation Yrotation
            End Site
            {
              OFFSET 0 18.812 -6.20394
            }
          }
        }
        JOINT RightShoulder
        {
          OFFSET -4.2188 10.82 -0.587439
          CHANNELS 3 Zrotation Xrotation Yrotation
          JOINT RightArm
          {
            OFFSET 0 14.1914 0
            CHANNELS 3 Zrotation Xrotation Yrotation
            JOINT RightArmRoll
            {
              OFFSET 0 7.16408 0
              CHANNELS 3 Zrotation Xrotation Yrotation
              JOINT RightForeArm
              {
                OFFSET 0 20.8665 0
                CHANNELS 3 Zrotation Xrotation Yrotation
                JOINT RightForeArmRoll
                {
                  OFFSET 0 8.03921 0
                  CHANNELS 3 Zrotation Xrotation Yrotation
                  JOINT RightHand
                  {
                    OFFSET 0 16.133 0
                    CHANNELS 3 Zrotation Xrotation Yrotation
                    End Site
                    {
                      OFFSET 0 0 0
                    }
                  }
                }
              }
            }
          }
        }
        JOINT LeftShoulder
        {
          OFFSET 4.2188 10.82 -0.587439
          CHANNELS 3 Zrotation Xrotation Yrotation
          JOINT LeftArm
          {
            OFFSET 0 14.1914 0
            CHANNELS 3 Zrotation Xrotation Yrotation
            JOINT LeftArmRoll
            {
              OFFSET 0 7.16408 0
              CHANNELS 3 Zrotation Xrotation Yrotation
              JOINT LeftForeArm
              {
                OFFSET 0 20.8665 0
                CHANNELS 3 Zrotation Xrotation Yrotation
                JOINT LeftForeArmRoll
                {
                  OFFSET 0 8.03921 0
                  CHANNELS 3 Zrotation Xrotation Yrotation
                  JOINT LeftHand
                  {
                    OFFSET 0 16.133 0
                    CHANNELS 3 Zrotation Xrotation Yrotation
                    End Site
                    {
                      OFFSET 0 0 0
                    }
                  }
                }
              }
            }
          }
        }
      }
    }
  }
  JOINT RightUpLeg
  {
    OFFSET -7.35773 -1.34921 -1.13182
    CHANNELS 3 Zrotation Xrotation Yrotation
    JOINT RightUpLegRoll
    {
      OFFSET 0 18.9168 0
      CHANNELS 3 Zrotation Xrotation Yrotation
      JOINT RightLeg
      {
        OFFSET 0 -23.4256 0
        CHANNELS 3 Zrotation Xrotation Yrotation
        JOINT RightLegRoll
        {
          OFFSET 0 23.5023 0
          CHANNELS 3 Zrotation Xrotation Yrotation
          JOINT RightFoot
          {
            OFFSET 0 19.5617 0
            CHANNELS 3 Zrotation Xrotation Yrotation
            JOINT RightToeBase
            {
              OFFSET 0 16.3526 0
              CHANNELS 3 Zrotation Xrotation Yrotation
              End Site
              {
                OFFSET 0.00693125 7.91944 -0.912836
              }
            }
          }
        }
      }
    }
  }
  JOINT LeftUpLeg
  {
    OFFSET 7.35773 -1.34921 -1.13182
    CHANNELS 3 Zrotation Xrotation Yrotation
    JOINT LeftUpLegRoll
    {
      OFFSET 0 18.9169 0
      CHANNELS 3 Zrotation Xrotation Yrotation
      JOINT LeftLeg
      {
        OFFSET 0 23.4255 0
        CHANNELS 3 Zrotation Xrotation Yrotation
        JOINT LeftLegRoll
        {
          OFFSET 0 23.7195 0
          CHANNELS 3 Zrotation Xrotation Yrotation
          JOINT LeftFoot
          {
            OFFSET 0 19.3444 0
            CHANNELS 3 Zrotation Xrotation Yrotation
            JOINT LeftToeBase
            {
              OFFSET 0 16.3526 0
              CHANNELS 3 Zrotation Xrotation Yrotation
              End Site
              {
                OFFSET -0.0310629 7.91944 -0.912837
              }
            }
          }
        }
      }
    }
  }
}
MOTION
Frames: 13
Frame Time: 0.00208333
37.8357 98.8575 2.45806 0.860063 -4.33634 0.359791 -0.0039925 -1.2325 0.103775 0.000873158 1.53286 0.239436 -0.0018867 3.17792 0.239632 -0.0874843 25.7787 -0.934793 -2.06859 -9.77177 -1.346 76.4569 -0.900034 -2.41553 94.8411 23.9433 18.5799 1.7419e-007 2.80046e-006 7.72937e-008 14.3078 0.13971 -0.0391941 1.28356e-005 -9.18995e-007 -3.01652 8.02892 -4.95147 0.697689 -68.1056 5.06006 -1.43659 -99.9006 17.0169 -15.0334 4.37326e-015 9.54166e-015 3.18055e-015 -9.84826 1.44529 0.623086 3.71013e-006 2.36685e-006 3 -8.02899 -4.95146 -0.697685 175.448 -1.65909 1.46507 180 7.0154e-015 178.893 176.07 5.28445 179.742 4.15996e-007 -3.04926e-006 0.062616 -18.4901 67.7675 19.3522 8.13649 25.2327 -3.48774 -175.939 -2.31719 0.833865 4.54188e-006 -4.6773e-006 -1.20375 -3.31625 -8.94804 0.42796 -2.56707e-006 -4.94933e-006 -0.113405 18.309 67.3952 -19.0461 -8.13649 25.2327 3.48774 
37.831 98.839 2.4565 0.859973 -4.33665 0.360636 -0.00398224 -1.23328 0.103743 0.000368955 1.53067 0.237864 -0.00238716 3.17573 0.238042 -0.0953483 25.7683 -0.930139 -2.05581 -9.7551 -1.34165 76.4732 -0.896762 -2.41575 94.8274 23.9138 18.5095 1.7419e-007 2.80046e-006 7.72937e-008 14.3771 0.160541 -0.0294467 1.28356e-005 -9.18995e-007 -3.01584 8.02892 -4.95147 0.697689 -68.1156 5.05346 -1.4316 -99.887 16.9835 -15.0347 9.14409e-015 6.36111e-015 3.18055e-015 -9.86078 1.47025 0.625805 3.71013e-006 2.36685e-006 3 -8.02899 -4.95146 -0.697685 175.445 -1.66395 1.4735 180 7.0154e-015 178.893 176.059 5.27769 179.743 4.15996e-007 -3.04926e-006 0.062616 -18.4875 67.7642 19.3493 8.13649 25.2327 -3.48774 -175.939 -2.32103 0.834415 4.54188e-006 -4.6773e-006 -1.20375 -3.31438 -8.94634 0.428538 -2.56707e-006 -4.94933e-006 -0.113405 18.3068 67.3925 -19.0437 -8.13649 25.2327 3.48774 
37.8281 98.8478 2.47352 0.85984 -4.337 0.361566 -0.00396697 -1.23406 0.103694 -0.000137198 1.52846 0.236251 -0.00288966 3.17352 0.23641 -0.102946 25.758 -0.925593 -2.04305 -9.73839 -1.3373 76.4896 -0.893585 -2.41601 94.8142 23.884 18.4394 1.7419e-007 2.80046e-006 7.72938e-008 14.4463 0.176985 -0.0184624 1.28356e-005 -9.18995e-007 -3.01514 8.02892 -4.95147 0.697689 -68.1258 5.04652 -1.42641 -99.8734 16.9506 -15.0354 4.77083e-015 6.36111e-015 4.77083e-015 -9.87376 1.49278 0.628242 3.71013e-006 2.36685e-006 3 -8.02899 -4.95146 -0.697685 175.442 -1.66892 1.4821 180 7.0154e-015 178.893 176.048 5.27088 179.743 4.15996e-007 -3.04926e-006 0.062616 -18.4847 67.7609 19.3464 8.13649 25.2327 -3.48774 -175.939 -2.32509 0.834997 4.54188e-006 -4.6773e-006 -1.20375 -3.31241 -8.94439 0.429132 -2.56707e-006 -4.94933e-006 -0.113405 18.3045 67.3896 -19.0412 -8.13649 25.2327 3.48774 
37.8303 98.8488 2.4731 0.859677 -4.33737 0.362557 -0.00394819 -1.23482 0.103634 -0.000644754 1.52623 0.234609 -0.00339363 3.17129 0.234747 -0.110358 25.7477 -0.921125 -2.03031 -9.72164 -1.33297 76.506 -0.890475 -2.4163 94.8014 23.8539 18.3695 1.7419e-007 2.80046e-006 7.72937e-008 14.5153 0.190358 -0.00661233 1.28356e-005 -9.18995e-007 -3.01442 8.02892 -4.95147 0.697689 -68.1361 5.03936 -1.42107 -99.86 16.9181 -15.0358 5.1684e-015 3.18055e-015 3.18055e-015 -9.88706 1.51361 0.630482 3.71013e-006 2.36685e-006 3 -8.02899 -4.95146 -0.697685 175.438 -1.67397 1.49082 180 7.0154e-015 178.893 176.036 5.26405 179.744 4.15996e-007 -3.04926e-006 0.062616 -18.482 67.7576 19.3434 8.13649 25.2327 -3.48774 -175.938 -2.32931 0.835601 4.54188e-006 -4.6773e-006 -1.20375 -3.31038 -8.94226 0.429737 -2.56707e-006 -4.94933e-006 -0.113405 18.3021 67.3865 -19.0386 -8.13649 25.2327 3.48774 
37.8347 98.8406 2.45318 0.859497 -4.33776 0.363582 -0.00392741 -1.23557 0.103568 -0.00115317 1.524 0.23295 -0.0038985 3.16906 0.233068 -0.117663 25.7375 -0.916701 -2.01757 -9.70488 -1.32864 76.5225 -0.887404 -2.41662 94.7888 23.8236 18.2997 1.7419e-007 2.80046e-006 7.72938e-008 14.5843 0.201976 0.00573254 1.28356e-005 -9.18995e-007 -3.01369 8.02892 -4.95147 0.697689 -68.1465 5.03206 -1.41566 -99.8465 16.8857 -15.036 1.03368e-014 6.36111e-015 4.77083e-015 -9.90054 1.53347 0.632611 3.71013e-006 2.36685e-006 3 -8.02899 -4.95146 -0.697685 175.435 -1.67906 1.49961 180 7.0154e-015 178.893 176.025 5.25721 179.744 4.15996e-007 -3.04926e-006 0.062616 -18.4793 67.7542 19.3404 8.13649 25.2327 -3.48774 -175.938 -2.33362 0.836218 4.54188e-006 -4.6773e-006 -1.20375 -3.30831 -8.94004 0.430348 -2.56707e-006 -4.94933e-006 -0.113405 18.2996 67.3835 -19.036 -8.13649 25.2327 3.48774 
37.8316 98.8345 2.46113 0.859313 -4.33816 0.364615 -0.00390614 -1.23633 0.1035 -0.0016619 1.52176 0.231287 -0.0044037 3.16682 0.231384 -0.124939 25.7273 -0.912288 -2.00485 -9.68811 -1.32431 76.539 -0.884342 -2.41694 94.7762 23.7933 18.2299 1.7419e-007 2.80046e-006 7.72937e-008 14.6533 0.213155 0.0182011 1.28356e-005 -9.18995e-007 -3.01296 8.02892 -4.95147 0.697689 -68.1569 5.02473 -1.41023 -99.8331 16.8535 -15.0361 -5.96354e-015 6.36111e-015 -0 -9.91408 1.55308 0.634711 3.71013e-006 2.36685e-006 3 -8.02899 -4.95146 -0.697685 175.432 -1.68416 1.50842 180 7.0154e-015 178.893 176.013 5.25036 179.745 4.15996e-007 -3.04926e-006 0.062616 -18.4765 67.7509 19.3374 8.13649 25.2327 -3.48774 -175.938 -2.33796 0.836838 4.54188e-006 -4.6773e-006 -1.20375 -3.30623 -8.9378 0.430961 -2.56707e-006 -4.94933e-006 -0.113405 18.2972 67.3804 -19.0333 -8.13649 25.2327 3.48774 
37.8192 98.8374 2.48053 0.859137 -4.33854 0.365632 -0.00388586 -1.23709 0.103436 -0.0021704 1.51952 0.229633 -0.00490863 3.16459 0.229709 -0.132266 25.717 -0.907854 -1.99212 -9.67136 -1.31998 76.5555 -0.881261 -2.41725 94.7634 23.7629 18.1602 1.7419e-007 2.80046e-006 7.72937e-008 14.7223 0.225212 0.0304223 1.28356e-005 -9.18995e-007 -3.01224 8.02892 -4.95147 0.697689 -68.1673 5.01746 -1.40484 -99.8196 16.8211 -15.0363 3.97569e-015 3.18055e-015 3.18055e-015 -9.92752 1.57318 0.636868 3.71013e-006 2.36685e-006 3 -8.02899 -4.95146 -0.697685 175.428 -1.68925 1.5172 180 7.0154e-015 178.893 176.001 5.24352 179.746 4.15996e-007 -3.04926e-006 0.062616 -18.4738 67.7475 19.3345 8.13649 25.2327 -3.48774 -175.938 -2.34225 0.837452 4.54188e-006 -4.6773e-006 -1.20375 -3.30416 -8.9356 0.43157 -2.56707e-006 -4.94933e-006 -0.113405 18.2948 67.3773 -19.0307 -8.13649 25.2327 3.48774 
37.8205 98.842 2.47758 0.858983 -4.33891 0.366605 -0.0038681 -1.23785 0.103379 -0.0026781 1.5173 0.227999 -0.00541274 3.16237 0.228055 -0.139723 25.7068 -0.903367 -1.97938 -9.65462 -1.31565 76.5719 -0.878132 -2.41753 94.7502 23.7326 18.0903 1.7419e-007 2.80046e-006 7.72937e-008 14.7914 0.239462 0.0420252 1.28356e-005 -9.18995e-007 -3.01153 8.02892 -4.95147 0.697689 -68.1775 5.01036 -1.39954 -99.8061 16.7885 -15.0368 -5.1684e-015 6.36111e-015 -0 -9.94074 1.5945 0.639165 3.71013e-006 2.36685e-006 3 -8.02899 -4.95146 -0.697685 175.425 -1.69427 1.52589 180 7.0154e-015 178.893 175.99 5.23669 179.746 4.15996e-007 -3.04926e-006 0.062616 -18.4711 67.7442 19.3315 8.13649 25.2327 -3.48774 -175.937 -2.34643 0.83805 4.54188e-006 -4.6773e-006 -1.20375 -3.30215 -8.93353 0.432172 -2.56707e-006 -4.94933e-006 -0.113405 18.2924 67.3743 -19.0281 -8.13649 25.2327 3.48774 
37.815 98.8391 2.47755 0.858863 -4.33925 0.36751 -0.00385434 -1.23863 0.103335 -0.00318446 1.51509 0.226398 -0.00591543 3.16016 0.226436 -0.14739 25.6964 -0.898795 -1.96663 -9.63792 -1.3113 76.5883 -0.874927 -2.41778 94.7362 23.7026 18.0204 1.7419e-007 2.80046e-006 7.72937e-008 14.8605 0.257222 0.0526385 1.28356e-005 -9.18995e-007 -3.01083 8.02892 -4.95147 0.697689 -68.1876 5.00353 -1.39441 -99.7926 16.7554 -15.0377 -9.54166e-015 3.18055e-015 -1.59028e-015 -9.95359 1.61776 0.641687 3.71013e-006 2.36685e-006 3 -8.02899 -4.95146 -0.697685 175.422 -1.69921 1.53444 180 7.0154e-015 178.893 175.979 5.2299 179.747 4.15996e-007 -3.04926e-006 0.062616 -18.4684 67.7409 19.3286 8.13649 25.2327 -3.48774 -175.937 -2.35042 0.838622 4.54188e-006 -4.6773e-006 -1.20375 -3.30021 -8.93165 0.432761 -2.56707e-006 -4.94933e-006 -0.113405 18.2901 67.3715 -19.0257 -8.13649 25.2327 3.48774 
37.8126 98.8488 2.48172 0.858791 -4.33954 0.36832 -0.00384608 -1.23942 0.103309 -0.00368891 1.51291 0.224843 -0.00641611 3.15798 0.224863 -0.155345 25.686 -0.894103 -1.95386 -9.62126 -1.30695 76.6045 -0.871616 -2.41797 94.7215 23.6727 17.9501 1.7419e-007 2.80046e-006 7.72938e-008 14.9298 0.279808 0.0618914 1.28356e-005 -9.18995e-007 -3.01016 8.02892 -4.95147 0.697689 -68.1975 4.99706 -1.3895 -99.779 16.7217 -15.0392 -3.97569e-015 3.18055e-015 1.59028e-015 -9.96594 1.6437 0.644519 3.71013e-006 2.36685e-006 3 -8.02899 -4.95146 -0.697685 175.419 -1.70402 1.54279 180 7.0154e-015 178.893 175.968 5.22316 179.747 4.15996e-007 -3.04926e-006 0.062616 -18.4657 67.7377 19.3257 8.13649 25.2327 -3.48774 -175.937 -2.35416 0.839159 4.54188e-006 -4.6773e-006 -1.20375 -3.29837 -8.93004 0.433334 -2.56707e-006 -4.94933e-006 -0.113405 18.288 67.3688 -19.0233 -8.13649 25.2327 3.48774 
37.8171 98.8494 2.4893 0.858778 -4.33977 0.36901 -0.00384484 -1.24023 0.103305 -0.0041909 1.51076 0.223345 -0.00691421 3.15583 0.22335 -0.163667 25.6755 -0.889261 -1.94107 -9.60467 -1.30257 76.6207 -0.868172 -2.4181 94.7056 23.6433 17.8796 1.7419e-007 2.80046e-006 7.72937e-008 14.9992 0.308537 0.0694127 1.28356e-005 -9.18995e-007 -3.00953 8.02892 -4.95147 0.697689 -68.2071 4.99105 -1.38488 -99.7653 16.6874 -15.0414 -1.76556e-031 3.18055e-015 3.18055e-015 -9.97766 1.67304 0.647745 3.71013e-006 2.36685e-006 3 -8.02899 -4.95146 -0.697685 175.415 -1.70867 1.55091 180 7.0154e-015 178.893 175.957 5.21647 179.748 4.15996e-007 -3.04926e-006 0.062616 -18.4631 67.7344 19.3229 8.13649 25.2327 -3.48774 -175.937 -2.35758 0.839652 4.54188e-006 -4.6773e-006 -1.20375 -3.29667 -8.92879 0.433885 -2.56707e-006 -4.94933e-006 -0.113405 18.286 67.3663 -19.0212 -8.13649 25.2327 3.48774 
37.8154 98.8457 2.49187 0.858838 -4.33993 0.369554 -0.00385211 -1.24107 0.103328 -0.00468986 1.50864 0.221918 -0.00740912 3.15372 0.221911 -0.172435 25.6649 -0.884236 -1.92824 -9.58815 -1.29818 76.6366 -0.864565 -2.41814 94.6885 23.6143 17.8087 1.7419e-007 2.80046e-006 7.72937e-008 15.0687 0.344723 0.0748314 1.28356e-005 -9.18995e-007 -3.00894 8.02892 -4.95147 0.697689 -68.2163 4.9856 -1.3806 -99.7514 16.6521 -15.0445 -5.56597e-015 3.18055e-015 -0 -9.9886 1.70652 0.651449 3.71013e-006 2.36685e-006 3 -8.02899 -4.95146 -0.697685 175.412 -1.71314 1.55872 180 7.0154e-015 178.893 175.947 5.20987 179.748 4.15996e-007 -3.04926e-006 0.062616 -18.4606 67.7313 19.3201 8.13649 25.2327 -3.48774 -175.937 -2.36062 0.840091 4.54188e-006 -4.6773e-006 -1.20375 -3.29513 -8.92795 0.434409 -2.56707e-006 -4.94933e-006 -0.113405 18.2842 67.3641 -19.0193 -8.13649 25.2327 3.48774 
37.8172 98.8461 2.4873 0.858984 -4.34002 0.369925 -0.00386938 -1.24194 0.103383 -0.00518522 1.50657 0.220574 -0.00790026 3.15165 0.220556 -0.181729 25.6542 -0.878995 -1.91538 -9.57173 -1.29376 76.6525 -0.860767 -2.41809 94.67 23.5858 17.7373 1.7419e-007 2.80046e-006 7.72937e-008 15.1385 0.389684 0.0777765 1.28356e-005 -9.18995e-007 -3.00839 8.02892 -4.95147 0.697689 -68.2252 4.98082 -1.37672 -99.7375 16.6157 -15.0487 -7.95139e-015 -3.18055e-015 1.59028e-015 -9.99864 1.74487 0.655716 3.71013e-006 2.36685e-006 3 -8.02899 -4.95146 -0.697685 175.409 -1.71738 1.56619 180 7.0154e-015 178.893 175.937 5.20332 179.749 4.15996e-007 -3.04926e-006 0.062616 -18.458 67.7282 19.3174 8.13649 25.2327 -3.48774 -175.937 -2.3632 0.840466 4.54188e-006 -4.6773e-006 -1.20375 -3.29377 -8.9276 0.434903 -2.56707e-006 -4.94933e-006 -0.113405 18.2827 67.3621 -19.0176 -8.13649 25.2327 3.48774 
